<?xml version="1.0" encoding="UTF-8"?>
<svg xmlns="http://www.w3.org/2000/svg" viewBox="0 0 163.15 157.84">
  <defs>
    <style>
      .cls-1 {
        stroke-width: .75px;
      }

      .cls-1, .cls-2, .cls-3, .cls-4 {
        stroke: #1d1d1b;
      }

      .cls-1, .cls-2, .cls-3, .cls-4, .cls-5 {
        stroke-miterlimit: 10;
      }

      .cls-1, .cls-3, .cls-4 {
        fill: #1d1d1b;
      }

      .cls-2 {
        fill: none;
        stroke-width: 3px;
      }

      .cls-3 {
        stroke-width: .25px;
      }

      .cls-4 {
        stroke-width: .5px;
      }

      .cls-6 {
        fill: #fcbf2b;
      }

      .cls-6, .cls-7 {
        stroke-width: 0px;
      }

      .cls-7, .cls-5 {
        fill: #fff;
      }

      .cls-5 {
        stroke: #fff;
        stroke-width: 5px;
      }
    </style>
  </defs>
  <g id="Camada_2" data-name="Camada 2">
    <polyline class="cls-5" points="87.32 32.72 100.43 36.64 113.19 49.84"/>
  </g>
  <g id="Camada_3" data-name="Camada 3">
    <g>
      <path class="cls-6" d="M149.05,90.93l-4.11-3.34c-2.28-1.84-4.3-3.98-6.03-6.35l-4.35-5.96c-.96-1.31-2.38-2.2-3.97-2.48-.95-.16-1.93-.11-2.86.17l-3.55,1.05c2.94-.87,4.96-3.58,4.96-6.65,0-1.49-.48-2.95-1.38-4.15l-3.84-5.13-7.14-9.53-1.53-2.05-8.66-11.57c-1.43-1.91-3.26-3.48-5.36-4.61l-9-4.83c-.12-.06-.24-.12-.36-.17-2.79-1.3-5.83-1.97-8.91-1.97h-6.54c-3.08,0-6.12.67-8.91,1.97-.12.05-.24.11-.36.17l-9,4.83c-2.1,1.13-3.93,2.7-5.36,4.61l-8.66,11.57-1.53,2.05-7.14,9.53-3.84,5.13c-.9,1.2-1.38,2.66-1.38,4.15,0,3.07,2.02,5.78,4.96,6.65l-3.55-1.05c-.58-.18-1.18-.26-1.78-.26-.36,0-.72.03-1.08.09-1.59.28-3.01,1.17-3.97,2.48l-4.35,5.96c-1.73,2.37-3.75,4.51-6.03,6.35l-4.11,3.34c-1.46,1.19-2.31,2.97-2.31,4.86,0,2.82.34,5.62,1.01,8.34.66,2.72,1.65,5.37,2.96,7.87,1.36,2.62,3.2,4.95,5.42,6.89l.46.4,6.9,6.01c1.7,1.48,3.53,2.81,5.47,3.97l10.53,6.3c1.19.71,2.58,1.01,3.95.85l10.24-1.23,7.43-.61c1.57-.13,3.07-.6,4.4-1.36,1.34-.76,2.51-1.8,3.43-3.08,1.17-1.64,3.07-2.61,5.08-2.61h8.78c1,0,1.98.24,2.86.69.87.45,1.64,1.1,2.22,1.92,1.83,2.56,4.7,4.18,7.83,4.44l7.43.61,10.24,1.23c1.37.16,2.76-.14,3.95-.85l10.53-6.3c1.94-1.16,3.77-2.49,5.47-3.97l6.9-6.01.47-.41c2.21-1.93,4.05-4.26,5.4-6.86v-.02c2.62-5.01,3.98-10.57,3.98-16.21,0-1.89-.85-3.67-2.31-4.86Z"/>
      <path class="cls-2" d="M129.14,67.37h0c0,3.07-2.02,5.77-4.96,6.64l-7.4,2.19-11.59,3.43c-.51.15-1.05.24-1.58.27l-11.56.64-11.98.66c-.25.01-.51.01-.76,0l-11.98-.66-11.56-.64c-.54-.03-1.07-.12-1.58-.27l-11.59-3.43-7.4-2.19c-2.94-.87-4.96-3.58-4.96-6.64h0c0-1.5.48-2.95,1.38-4.15l3.84-5.13,7.14-9.53,1.53-2.05,8.66-11.57h0c1.43-1.91,3.26-3.48,5.36-4.61l9-4.82c.12-.06.24-.12.36-.18h0c2.79-1.29,5.83-1.97,8.91-1.97h6.54c3.08,0,6.12.67,8.91,1.97h0c.12.06.24.12.36.18l9,4.82c2.1,1.13,3.93,2.7,5.36,4.61h0s8.66,11.57,8.66,11.57l1.53,2.05,7.14,9.53,3.84,5.13c.9,1.2,1.38,2.65,1.38,4.15Z"/>
      <path class="cls-2" d="M151.36,95.78h0c0,5.65-1.36,11.21-3.97,16.22v.02c-1.37,2.6-3.2,4.93-5.41,6.86l-.47.41-6.9,6.01c-1.7,1.48-3.53,2.81-5.47,3.97h0s-10.53,6.3-10.53,6.3c-1.19.71-2.58,1.01-3.96.84l-10.24-1.23-7.43-.61c-3.14-.26-6-1.88-7.83-4.44h0c-1.17-1.64-3.07-2.61-5.08-2.61h-8.78c-2.02,0-3.91.97-5.08,2.61h0c-1.83,2.56-4.7,4.18-7.83,4.44l-7.43.61-10.24,1.23c-1.38.16-2.77-.13-3.96-.84l-10.53-6.3h0c-1.94-1.16-3.77-2.49-5.47-3.97l-6.9-6.01-.46-.4c-2.22-1.94-4.06-4.27-5.42-6.89h0c-2.61-5.01-3.97-10.57-3.97-16.22h0c0-1.88.85-3.67,2.31-4.85l4.11-3.34c2.28-1.85,4.3-3.98,6.03-6.35h0s4.35-5.96,4.35-5.96c.95-1.31,2.38-2.19,3.97-2.47h0c.95-.17,1.93-.11,2.86.16l10.95,3.24,11.66,3.45c.46.14.94.22,1.43.25l11.64.65,12.02.66c.23.01.46.01.69,0l12.02-.66,11.64-.65c.48-.03.96-.11,1.43-.25l11.66-3.45,10.95-3.24c.93-.27,1.9-.33,2.86-.16h0c1.59.28,3.02,1.17,3.97,2.47l4.35,5.96h0c1.73,2.37,3.75,4.51,6.03,6.35l4.11,3.34c1.46,1.19,2.31,2.97,2.31,4.85Z"/>
      <g>
        <g>
          <path class="cls-1" d="M70.71,127.34l-3.38-6.15-5.64-9.27,9.22,12.72c.15.2.21.46.16.71l-.36,2Z"/>
          <path class="cls-1" d="M30.12,72.93l4.89,3.2s.07.05.11.08l7.1,6.3c.06.05.11.11.16.18l13.74,20.7-14.12-19.84c-.05-.07-.1-.13-.17-.18l-7.63-6.22s-.1-.08-.16-.11l-4.85-2.51c-.77-.4-.62-1.54.22-1.73h0c.24-.05.5,0,.71.13Z"/>
          <path class="cls-4" d="M14.69,88.05l3.68,1.42c.16.06.29.16.4.29l34.14,43.71-34.63-45.2c-.11-.15-.27-.26-.45-.32l-3.13-1.03v1.12Z"/>
        </g>
        <g>
          <path class="cls-1" d="M88.67,127.34l3.38-6.15,5.64-9.27-9.22,12.72c-.15.2-.21.46-.16.71l.36,2Z"/>
          <path class="cls-1" d="M129.26,72.93l-4.89,3.2s-.07.05-.11.08l-7.1,6.3c-.06.05-.11.11-.16.18l-13.74,20.7,14.12-19.84c.05-.07.1-.13.17-.18l7.63-6.22s.1-.08.16-.11l4.85-2.51c.77-.4.62-1.54-.22-1.73h0c-.24-.05-.5,0-.71.13Z"/>
          <path class="cls-4" d="M144.69,88.05l-3.68,1.42c-.16.06-.29.16-.4.29l-34.14,43.71,34.63-45.2c.11-.15.27-.26.45-.32l3.13-1.03v1.12Z"/>
        </g>
      </g>
      <path class="cls-7" d="M79.18,52.3c0-.07-2.16-3.77-4.03-6.97-1.74-2.96-4.64-5.05-8-5.77h0c-3.35-.71-6.85.02-9.64,2.02l-2.35,1.68c-2.34,1.67-4.01,4.11-4.72,6.9l-1.01,3.94c-.77,3.02-.36,6.23,1.15,8.96l1.21,2.19c1.78,3.2,4.89,5.43,8.5,6.08l.61.11c2.97.54,6.04-.04,8.61-1.63l3.62-2.24c3.14-1.95,5.23-5.21,5.69-8.88l.27-2.2c.06-.5.09-1,.09-1.5v-2.69Z"/>
      <path class="cls-7" d="M79.18,52.3c0-.07,2.16-3.77,4.03-6.97,1.74-2.96,4.64-5.05,8-5.77h0c3.35-.71,6.85.02,9.64,2.02l2.35,1.68c2.34,1.67,4.01,4.11,4.72,6.9l1.01,3.94c.77,3.02.36,6.23-1.15,8.96l-1.21,2.19c-1.78,3.2-4.89,5.43-8.5,6.08l-.61.11c-2.97.54-6.04-.04-8.61-1.63l-3.62-2.24c-3.14-1.95-5.23-5.21-5.69-8.88l-.27-2.2c-.06-.5-.09-1-.09-1.5v-2.69Z"/>
      <ellipse class="cls-3" cx="65.72" cy="54.27" rx="5.07" ry="5.52"/>
      <ellipse class="cls-3" cx="94.24" cy="54.27" rx="5.07" ry="5.52"/>
      <ellipse class="cls-7" cx="69.62" cy="52.06" rx="3.05" ry="2.22"/>
      <ellipse class="cls-7" cx="98.12" cy="52.06" rx="3.05" ry="2.22"/>
    </g>
    <g>
      <line class="cls-5" x1="95.07" y1="33.74" x2="103.27" y2="39.29"/>
      <line class="cls-5" x1="129.14" y1="80.55" x2="137.7" y2="88.09"/>
      <path class="cls-5" d="M142.47,92.98c.51.17,5.11,4.6,5.11,4.6"/>
      <line class="cls-5" x1="39.06" y1="85.91" x2="49.04" y2="101.57"/>
      <line class="cls-5" x1="58.66" y1="115.49" x2="64.72" y2="125.36"/>
    </g>
  </g>
</svg>